<svg width="618" height="618" viewBox="0 0 618 618" fill="none" xmlns="http://www.w3.org/2000/svg">
<circle cx="309" cy="309" r="284" stroke="#3F9142" stroke-width="50"/>
<path d="M211.578 134.158L217.545 118.209C216.779 118.209 218.243 117.635 218.992 117.771C219.742 117.908 272.06 115.183 275.262 114.91C277.823 114.692 277.555 115.773 277.101 116.341C275.194 121.632 271.202 132.602 270.493 134.158C269.785 135.714 268.927 135.996 268.586 135.942H252.645C251.031 153.084 247.747 187.812 247.526 189.582C247.305 191.353 247.065 191.426 246.973 191.242L228.783 197.674C226.432 198.781 225.878 196.222 226.224 196.152C226.501 196.097 229.27 155.989 230.62 135.942L212.445 135.868C211.108 136.063 211.31 134.809 211.578 134.158Z" fill="black"/>
<path d="M282.093 149.477L284.528 120.982C284.595 120.204 285.552 119.719 286.022 119.574C291.136 118.329 301.891 115.706 303.996 115.176C306.101 114.646 306.761 115.531 306.828 116.04V117.483C306.701 118.79 305.797 130.469 305.797 131.018C305.797 131.456 304.954 137.892 304.532 141.055L303.436 148.773L323.047 148.52C322.752 148.436 324.22 135.392 324.271 135.037C324.321 134.682 325.092 124.272 325.116 122.052C325.135 120.276 326.429 119.657 327.073 119.57L345.003 115.25C346.809 114.714 347.717 115.19 348.025 116.236C348.271 117.073 347.594 124.545 347.225 128.176C347.077 129.702 346.301 136.115 345.932 139.131C345.046 140.411 342.202 172.977 340.892 189.1C340.721 191.057 340.296 190.972 340.041 191.286C339.837 191.538 328.585 195.463 322.984 197.394C319.888 198.211 319.267 196.737 319.344 195.897C318.971 195.649 321.649 168.212 321.649 168.212C321.649 168.212 322.167 165.349 321.074 165.31C319.981 165.271 301.988 166.107 301.988 166.107C301.263 173.706 299.791 189.121 299.708 189.991C299.625 190.861 299.294 191.217 299.138 191.286L281.213 197.659C278.643 198.529 278.242 196.847 278.363 195.897C277.949 195.897 279.572 176.244 280.435 166.418C275.514 166.418 276.187 166.107 273.7 166.107C271.711 166.107 272.146 164.587 272.612 163.828L282.093 149.477Z" fill="black"/>
<path d="M355.85 132.348L365.118 116.945H387.571C388.41 116.945 413.13 115.075 413.827 114.994C414.523 114.913 415.966 115.45 415.621 116.505C415.276 117.56 411.097 129.896 410.379 131.002C409.675 132.088 408.931 132.339 408.09 132.622L408.043 132.638C407.182 132.928 386.963 133.498 386.963 133.498L385.508 147.518C385.508 147.518 399.739 147.007 401.239 146.932C402.738 146.858 403.207 148.43 402.738 149.249C402.268 150.068 398.149 161.108 397.422 162.198C396.696 163.289 395.42 163.834 394.696 163.834C393.972 163.834 383.655 164.652 383.655 164.652L382.156 180.872H409.689V182.78C409.689 183.388 403.285 193.943 402.738 194.502C402.191 195.061 400.148 196.967 397.422 196.819L397.215 196.808C393.291 196.596 359.936 194.793 356.94 194.502C353.881 194.205 355.85 191.776 355.85 191.776L361.165 182.78L362.256 164.652L356.94 163.834C356.94 163.834 354.898 163.961 356.94 161.108C358.982 158.255 363.346 152.384 363.346 152.384L364.437 134.256H357.894C354.826 134.256 355.85 132.348 355.85 132.348Z" fill="black"/>
<path d="M143.392 348.89C92.658 348.89 95.3945 267.111 148.072 267.111C164.101 267.111 170.183 273.488 170.183 273.488L170.669 282.824L171.154 292.16C171.154 293.5 167.494 292.16 167.494 292.16C165.944 292.16 160.5 285.513 149.569 285.513C125 286.5 126 330.625 146.208 330.625C158 330.625 163.828 326.83 163.828 326.83C163.828 326.83 165.768 325.5 165.944 327.045C166.12 328.591 165.768 343.711 165.768 343.711C165.768 343.711 158.573 348.89 143.392 348.89Z" fill="black"/>
<path fill-rule="evenodd" clip-rule="evenodd" d="M184.945 270.738L176.069 286.106C176.069 286.106 175.737 286.937 177.189 286.937L188.052 285.036C187.02 297.471 183.136 344.685 183.383 347.412C183.383 348.845 183.577 350.242 186.26 349.63C188.942 349.019 203.353 343.549 203.353 343.549C204.75 343.549 204.906 341.813 204.906 341.186L207.523 312.011L224.637 347.987C226.879 350.228 227.928 349.792 228.926 349.377C229.058 349.322 229.189 349.267 229.322 349.22L239.574 344.302C239.574 344.302 247.56 341.058 249.866 339.44C252.173 337.822 249.866 337.55 249.866 337.55C249.866 337.55 247.695 337.55 245.979 337.32C244.264 337.09 243.621 335.907 243.621 335.907L227.899 309.199C254.303 298.441 253.533 264.817 212.379 266.913C212.379 266.913 205.097 267.35 196.522 268.594C192.764 269.137 188.737 269.84 184.945 270.738ZM210.307 282.527L208.091 305.422C224.689 304.372 231.374 281.944 216.254 281.944C211.24 281.944 210.307 282.527 210.307 282.527Z" fill="black"/>
<path fill-rule="evenodd" clip-rule="evenodd" d="M285.778 268.331C241.69 277.621 240.667 350.523 289.557 348.791C343.958 344.776 353.484 265.103 289.557 262.033C287.353 261.146 287.353 263.371 287.353 263.371L285.778 268.331ZM294.446 284.75C278.502 284.75 276.309 309.045 276.309 309.045C276.309 328.532 289.047 330.978 290.987 330.978C292.59 330.978 310.39 330.978 310.39 309.045C310.39 309.045 313.426 284.75 294.446 284.75Z" fill="black"/>
<path d="M359.198 348.279L338.012 273.436C337.478 270.798 339.872 269.563 339.872 269.563C343.802 268.163 351.751 267.003 355.771 266.988C359.922 266.738 360.43 269.426 360.43 269.426L371.414 311.686L380.619 295.856L376.584 278.611C376.15 275.487 378.804 274.689 378.804 274.689C381.826 273.502 384.825 273.135 392.552 272.428C396.672 271.841 396.952 274.236 396.952 274.236L404.359 307.675L415.049 272.748C415.702 270.657 416.966 270.625 418.155 270.374L433.175 266.913C435.328 266.6 434.588 269.576 434.588 269.576L411.708 338.977C410.675 341.391 409.45 344.125 407.974 344.872L398.443 349.294C396.17 350.317 395.691 348.213 395.691 348.213L386.228 314.835C383.306 321.091 376.079 336.466 374.467 338.977C372.433 342.143 364.432 348.785 362.497 349.236C362.497 349.236 360.066 350.259 359.198 348.279Z" fill="black"/>
<path d="M438.652 287.543C438.652 287.543 440.019 269.892 440.357 269.081C440.357 269.081 440.59 268.41 441.688 268.383L461.992 268.277C462.833 268.324 462.812 269.453 462.812 269.453C462.664 269.954 462.411 277.691 461.838 282.722C461.288 287.316 460.526 289.031 460.526 289.031C459.593 291.377 450.231 303.841 450.231 303.841C448.814 305.242 447.964 304.408 447.964 304.408L440.219 300.301C438.961 299.551 439.203 299.051 439.465 298.711L445.912 288.304L439.723 288.25C438.469 288.25 438.653 287.809 438.652 287.543Z" fill="black"/>
<path d="M467.828 292.691C467.828 280.111 477.206 267.158 498.868 267.158C506.417 267.158 511.795 269.983 513.002 270.677C513.631 271.038 514.867 271.79 515.001 273.046L515.887 290.978C515.887 292.421 514.281 292.63 513.532 291.881C513.532 291.881 506.262 283.64 498.821 283.64C490.338 283.64 490.338 288.784 490.338 288.784C490.338 299.123 517.231 303.337 517.231 323.167C517.231 323.167 517.231 348.783 484.997 348.783C472.58 348.783 468.726 345.185 468.726 345.185L467.828 325.858C467.519 325.548 468.37 323.949 469.82 325.399C469.82 325.399 475.206 331.318 484.207 331.318C492.919 331.318 492.278 326.333 492.278 326.333C492.278 318.619 467.828 313.588 467.828 292.691Z" fill="black"/>
<path d="M188.915 430.341L204.535 421.406C206.43 420.824 207.098 422.092 207.098 422.092L233.233 469.225V429.07C233.233 429.07 233.3 425.759 235.351 425.378L250.292 421.913C250.292 421.913 252.161 421.228 252.009 424.185C251.865 424.729 251.332 429.381 251.227 431.396L249.99 491.875C250.306 493.882 249.569 494.731 249.569 494.731C248.727 496.022 233.529 504.662 233.529 504.662L208.634 466.388L206.376 497.609C206.22 498.788 206.293 499.057 204.986 499.635C203.289 500.512 192.291 504.353 190.504 504.598C190.309 504.66 187.972 505.051 188.124 502.459L192.835 439.222C191.952 437.666 188.743 432.002 188.703 431.746C188.703 431.746 188.131 430.899 188.915 430.341Z" fill="black"/>
<path d="M262.203 439.181L271.393 423.891H294.105L320.403 421.91C321.937 421.773 321.911 423.486 321.911 423.486C321.934 424.657 316.56 437.937 316.56 437.937C316.56 437.937 316.063 439.661 313.9 439.661L293.104 440.445L291.655 454.476L307.647 453.893C307.647 453.893 310.207 453.767 308.703 457.457L303.124 469.981C303.124 469.981 302.876 471.089 300.382 471.089L290 471.293L288.5 487.737H316.05V489.817C316.05 489.817 308.986 501.427 308.296 502.117C308.296 502.117 306.608 503.736 305.101 503.736C278.689 503.736 262.195 501.427 262.195 501.427C262.195 501.427 261.31 501.325 261.31 499.96C261.578 499.692 267.23 489.87 267.23 489.87L268.536 471.635C264.447 471.635 262.778 471.059 262.778 471.059C261.701 470.341 262.419 469.318 262.419 469.318C262.419 469.066 269.452 459.489 269.452 459.489L270.819 441.299C270.819 441.299 263.288 441.56 262.654 440.926C262.654 440.926 261.431 440.445 262.203 439.181Z" fill="black"/>
<path d="M324.69 445.026C325.301 438.345 330.004 422.686 356.094 422.145C366.384 422.789 370.416 426.014 370.416 426.014C370.985 426.405 371.838 426.636 371.878 428.451L372.756 446.39C372.749 446.802 371.878 448.42 369.831 446.39C369.831 446.39 363.077 438.591 355.596 438.591C345.944 438.591 347.241 445.026 347.241 445.026C347.241 454.805 374.201 456.693 374.201 478.885C374.201 487.943 365.795 503.728 341.408 503.728C330.02 503.728 325.568 500.111 325.568 500.111L324.69 481.099C324.69 478.436 327.501 481.099 327.501 481.099C327.501 481.099 332.83 486.364 340.972 486.364C347.714 486.364 349.229 483.233 349.229 481.559C349.708 472.309 322.873 469.659 324.69 445.026Z" fill="black"/>
<path d="M379.331 441.146L385.297 425.197C384.531 425.197 385.995 424.623 386.745 424.759C387.494 424.895 439.813 422.17 443.014 421.898C445.576 421.68 445.308 422.761 444.854 423.328C442.946 428.619 438.954 439.59 438.246 441.146C437.537 442.701 436.679 442.983 436.338 442.93H420.398C418.783 460.072 415.5 494.799 415.278 496.57C415.057 498.34 414.817 498.414 414.725 498.23L396.536 504.662C394.184 505.768 393.631 503.209 393.977 503.14C394.253 503.085 397.022 462.977 398.372 442.93L380.197 442.855C378.86 443.051 379.062 441.797 379.331 441.146Z" fill="black"/>
</svg>
