<svg width="1093" height="206" viewBox="0 0 1093 206" fill="none" xmlns="http://www.w3.org/2000/svg">
<path d="M17.8691 49.0051L1.03223 16.3086H12.4896L23.109 39.2241L33.7284 16.3086H45.0464L28.3488 49.0051V67.3096H17.8691V49.0051Z" fill="black" stroke="black"/>
<path fill-rule="evenodd" clip-rule="evenodd" d="M69.1737 68.1619C78.7388 68.1619 90.8812 62.377 90.8812 42.205C90.8812 22.033 80.4098 15.5669 69.1737 15.5669C57.9375 15.5669 47.3135 22.0927 47.3135 42.205C47.3135 62.3174 59.6086 68.1619 69.1737 68.1619ZM69.1451 59.6959C75.6309 59.6959 80.6684 55.7734 80.6684 42.0953C80.6684 28.4172 76.764 24.0327 69.1451 24.0327C61.5262 24.0327 57.3623 28.4577 57.3623 42.0953C57.3623 55.7329 62.6593 59.6959 69.1451 59.6959Z" fill="black"/>
<path d="M98.1389 51.6241V16.3303H108.487V51.6241C108.487 51.6241 107.528 59.7109 116.985 59.7109C126.443 59.7109 126.785 51.6241 126.785 51.6241V16.3303H137.339V51.6241C137.339 51.6241 136.722 68.0717 116.985 68.0717C97.2482 68.0717 98.1389 51.6241 98.1389 51.6241Z" fill="black" stroke="black"/>
<path d="M143.54 29.0895C143.54 29.0895 147.523 23.5495 146.607 13.4312H154.62C156.039 23.7327 148.164 31.8823 148.164 31.8823L143.54 29.0895Z" fill="black" stroke="black"/>
<path fill-rule="evenodd" clip-rule="evenodd" d="M162.563 16.282V67.274H172.88V48.6457H181.487L190.919 67.274H202.355L191.331 45.9929C204.006 41.6306 205.185 16.282 184.67 16.282H162.563ZM173.057 24.7707V39.98C173.057 39.98 190.152 42.9275 189.857 32.3754C189.563 21.8233 173.057 24.7707 173.057 24.7707Z" fill="black" stroke="black"/>
<path d="M208.471 67.2711V16.1714H242.593V24.7019H219.155V37.1248H239.28V45.0755H219.155V58.9063H242.593V67.2711H208.471Z" fill="black" stroke="black"/>
<path d="M291.686 79.9805V2.27368H307.811L339.197 53.6813V2.27368H355.322V79.9805H339.197L307.811 28.5728V79.9805H291.686Z" fill="black" stroke="black"/>
<path fill-rule="evenodd" clip-rule="evenodd" d="M400.593 81.1956C415.223 81.1956 433.795 72.3476 433.795 41.4944C433.795 10.6412 417.779 0.751221 400.593 0.751221C383.408 0.751221 367.158 10.7324 367.158 41.4944C367.158 72.2563 385.964 81.1956 400.593 81.1956ZM400.55 68.2469C410.47 68.2469 418.175 62.2473 418.175 41.3266C418.175 20.4058 412.203 13.6997 400.55 13.6997C388.897 13.6997 382.528 20.4677 382.528 41.3266C382.528 62.1854 390.63 68.2469 400.55 68.2469Z" fill="black"/>
<path d="M435.996 15.1538V2.24976H499.516V15.1538H475.708V80.2743H459.503V15.1538H435.996Z" fill="black" stroke="black"/>
<path d="M548.608 71.3613V12.0718H560.912L584.859 51.2953V12.0718H597.163V71.3613H584.859L560.912 32.1377V71.3613H548.608Z" fill="black" stroke="black"/>
<path fill-rule="evenodd" clip-rule="evenodd" d="M631.483 72.5902C642.713 72.5902 656.968 65.7986 656.968 42.1165C656.968 18.4343 644.675 10.843 631.483 10.843C618.292 10.843 605.819 18.5044 605.819 42.1165C605.819 65.7286 620.254 72.5902 631.483 72.5902ZM631.45 62.651C639.064 62.651 644.978 58.0459 644.978 41.9877C644.978 25.9294 640.395 20.782 631.45 20.782C622.505 20.782 617.617 25.9769 617.617 41.9877C617.617 57.9984 623.835 62.651 631.45 62.651Z" fill="black"/>
<path d="M658.775 22.0237V12.2471H706.9V22.0237H688.863V71.3613H676.585V22.0237H658.775Z" fill="black" stroke="black"/>
<path d="M714.078 71.37V11.6929H726.178V35.7562H750.31V11.6929H762.479V71.37H750.31V45.794H726.178V71.37H714.078Z" fill="black" stroke="black"/>
<path d="M774.167 71.4387V11.624H786.474V71.4387H774.167Z" fill="black" stroke="black"/>
<path d="M798.162 71.3613V12.0718H810.466L834.413 51.2953V12.0718H846.716V71.3613H834.413L810.466 32.1377V71.3613H798.162Z" fill="black" stroke="black"/>
<path d="M854.894 26.4698C854.894 26.4698 859.282 20.3662 858.273 9.21851H867.101C868.665 20.568 859.988 29.5467 859.988 29.5467L854.894 26.4698Z" fill="black" stroke="black"/>
<path d="M176.647 168.806L159.811 136.109H171.268L181.887 159.025L192.507 136.109H203.825L187.127 168.806V187.111H176.647V168.806Z" fill="black" stroke="black"/>
<path fill-rule="evenodd" clip-rule="evenodd" d="M227.952 187.963C237.517 187.963 249.659 182.178 249.659 162.006C249.659 141.834 239.188 135.368 227.952 135.368C216.716 135.368 206.092 141.894 206.092 162.006C206.092 182.118 218.387 187.963 227.952 187.963ZM227.923 179.497C234.409 179.497 239.447 175.574 239.447 161.896C239.447 148.218 235.542 143.834 227.923 143.834C220.304 143.834 216.141 148.259 216.141 161.896C216.141 175.534 221.438 179.497 227.923 179.497Z" fill="black"/>
<path d="M256.917 171.425V136.131H267.266V171.425C267.266 171.425 266.306 179.512 275.764 179.512C285.221 179.512 285.564 171.425 285.564 171.425V136.131H296.117V171.425C296.117 171.425 295.501 187.873 275.764 187.873C256.027 187.873 256.917 171.425 256.917 171.425Z" fill="black" stroke="black"/>
<path d="M302.318 148.89C302.318 148.89 306.302 143.35 305.386 133.232H313.398C314.818 143.534 306.943 151.683 306.943 151.683L302.318 148.89Z" fill="black" stroke="black"/>
<path fill-rule="evenodd" clip-rule="evenodd" d="M321.342 136.083V187.075H331.658V168.447H340.265L349.697 187.075H361.133L350.11 165.794C362.784 161.432 363.963 136.083 343.448 136.083H321.342ZM331.835 144.572V159.781C331.835 159.781 348.931 162.728 348.636 152.176C348.341 141.624 331.835 144.572 331.835 144.572Z" fill="black" stroke="black"/>
<path d="M367.249 187.072V135.972H401.371V144.503H377.933V156.926H398.058V164.876H377.933V178.707H401.371V187.072H367.249Z" fill="black" stroke="black"/>
<path d="M466.489 130.872C480.779 131.248 480.779 143.188 480.779 143.188H498.077C498.077 143.188 498.077 117.053 466.489 117.053C453.046 117.053 435.465 124.01 435.465 141.12C435.465 166.032 476.548 165.75 479.932 177.972C479.932 177.972 484.445 190.757 466.489 190.757C450.413 190.757 450.413 176.749 450.413 176.749H432.928C432.928 176.749 432.928 204.765 466.489 204.765C466.489 204.765 498.077 208.337 498.077 177.972C498.077 153.153 453.046 154.845 453.046 141.12C453.046 141.12 453.046 130.684 466.489 130.872Z" fill="#3F9142" stroke="#207227"/>
<path d="M579.724 161.343C579.724 178.009 574.712 188.653 567.8 195.135C560.879 201.624 551.99 204.001 544.132 204.001C536.275 204.001 527.321 201.6 520.336 195.096C513.361 188.601 508.286 177.957 508.286 161.343C508.286 144.708 512.679 133.779 519.311 127.008C525.943 120.237 534.885 117.553 544.132 117.553C553.38 117.553 562.257 120.213 568.825 126.97C575.394 133.727 579.724 144.657 579.724 161.343ZM544.085 190.925C549.585 190.925 554.542 189.255 558.104 184.626C561.645 180.025 563.744 172.577 563.744 161.161C563.744 149.766 562.122 142.129 558.827 137.334C555.498 132.49 550.523 130.629 544.085 130.629C537.646 130.629 532.568 132.506 529.131 137.353C525.725 142.156 523.994 149.795 523.994 161.161C523.994 172.549 526.203 179.997 529.853 184.606C533.523 189.239 538.585 190.925 544.085 190.925Z" fill="#3F9142" stroke="#207227"/>
<path d="M593.019 203.263V118.149H616.082L637.974 179.628L659.677 118.149H682.895V203.263H665.363V179.628L666.974 139.92L644.039 203.263H632.004L608.785 139.92L610.405 179.628V203.263H593.019Z" fill="#3F9142" stroke="#207227"/>
<path d="M698.81 203.361V118.451H755.509V132.626H716.563V153.268H750.004V166.48H716.563V189.462H755.509V203.361H698.81Z" fill="#3F9142" stroke="#207227"/>
<path d="M761.625 132.461V118.451H830.591V132.461H804.742V203.165H787.148V132.461H761.625Z" fill="#3F9142" stroke="#207227"/>
<path d="M841.582 203.403V118.311H858.835V152.622H893.244V118.311H910.596V203.403H893.244V166.935H858.835V203.403H841.582Z" fill="#3F9142" stroke="#207227"/>
<path d="M927.261 203.501V118.213H944.809V203.501H927.261Z" fill="#3F9142" stroke="#207227"/>
<path d="M961.475 203.39V118.851H979.018L1013.16 174.779V118.851H1030.71V203.39H1013.16L979.018 147.463V203.39H961.475Z" fill="#3F9142" stroke="#207227"/>
<path d="M1042.37 139.381C1042.37 139.381 1048.62 130.678 1047.18 114.783H1059.77C1062 130.966 1049.63 143.768 1049.63 143.768L1042.37 139.381Z" fill="#3F9142" stroke="#207227"/>
<path d="M1075.94 176.631L1074.12 118.795H1090.99L1088.84 176.631H1075.94ZM1091.55 194.705C1091.55 199.674 1087.52 203.702 1082.55 203.702C1077.58 203.702 1073.56 199.674 1073.56 194.705C1073.56 189.737 1077.58 185.709 1082.55 185.709C1087.52 185.709 1091.55 189.737 1091.55 194.705Z" fill="#3F9142" stroke="#207227"/>
</svg>
