<svg width="502" height="502" viewBox="0 0 502 502" fill="none" xmlns="http://www.w3.org/2000/svg">
<circle cx="250.521" cy="250.715" r="235.5" fill="white"/>
<circle cx="250.521" cy="250.715" r="235.5" stroke="url(#paint0_linear)" stroke-width="30" style="mix-blend-mode:multiply"/>
<path d="M432.304 217.055C428.616 216.932 426.218 218.1 427.632 220.006C429.046 221.911 428.739 221.666 432.919 222.403L432.935 222.406C437.1 223.141 437.775 223.26 437.836 220.498C437.898 217.732 435.992 217.178 432.304 217.055Z" fill="#066310" stroke="black"/>
<path d="M415.837 274.334C414.332 267.359 426.78 262.643 428.051 264.701C429.631 266.975 429.083 269.717 425.299 272.098C421.515 274.479 415.837 274.334 415.837 274.334Z" fill="#066310" stroke="black"/>
<path d="M427.02 273.99C430.618 272.623 433.556 275.194 433.556 275.194C434.127 279.423 425.127 280.699 425.127 280.699C425.127 280.699 423.051 279.807 423.923 276.743C423.923 276.743 423.421 275.357 427.02 273.99Z" fill="#066310" stroke="black"/>
<path d="M59.3207 311.495C60.4179 302.719 65.5893 304.6 69.0365 304.913C72.4837 305.227 66.9993 316.666 62.6115 316.04C62.6115 316.04 58.2234 320.271 59.3207 311.495Z" fill="#066310" stroke="black"/>
<path d="M86.6251 202.262C87.7224 193.486 97.8001 191.003 97.8001 195.561C97.8001 200.12 95.5492 208.685 91.1614 208.058C91.1614 208.058 85.5279 211.037 86.6251 202.262Z" fill="#066310" stroke="black"/>
<path d="M71.2303 291.593C71.3867 293.631 69.6631 300.683 68.0956 300.212C66.529 300.056 64.9619 294.258 64.8049 291.593C64.6478 288.929 66.0582 285.012 68.0956 285.482C70.1329 285.952 71.0739 289.556 71.2303 291.593Z" fill="#066310" stroke="black"/>
<path d="M432.958 207.211C431.715 208.832 425.725 212.934 424.871 211.538C423.809 210.376 426.511 205.012 428.172 202.923C429.833 200.834 433.498 198.857 434.701 200.567C435.905 202.277 434.201 205.589 432.958 207.211Z" fill="#066310" stroke="black"/>
<path d="M175.407 150.001C173.664 148.934 168.958 143.407 170.258 142.411C171.303 141.234 176.92 143.36 179.171 144.794C181.422 146.227 183.771 149.665 182.196 151.041C180.622 152.417 177.149 151.068 175.407 150.001Z" fill="#066310" stroke="black"/>
<path d="M99.2261 154.88C99.3825 156.918 96.6192 163.152 95.0516 162.682C93.4851 162.525 91.918 156.727 91.7609 154.063C91.6039 151.399 93.0142 147.481 95.0516 147.951C97.089 148.421 99.0697 152.843 99.2261 154.88Z" fill="#066310" stroke="black"/>
<path d="M86.587 286.892C88.2047 287.474 91.3283 291.086 90.9747 293.474C86.587 295.869 81.7624 291.086 81.416 289.4C82.0552 286.892 84.9692 286.311 86.587 286.892Z" fill="#066310" stroke="black"/>
<path d="M396.962 185.409C398.58 185.991 401.703 189.603 401.35 191.991C396.962 194.386 392.137 189.603 391.791 187.916C392.43 185.409 395.344 184.827 396.962 185.409Z" fill="#066310" stroke="black"/>
<path d="M361.235 167.527C362.853 168.109 365.977 171.72 365.623 174.109C361.235 176.503 356.411 171.72 356.064 170.034C356.704 167.527 359.618 166.945 361.235 167.527Z" fill="#066310" stroke="black"/>
<path d="M112.643 158.609C114.26 159.191 117.384 162.802 117.03 165.191C112.643 167.585 107.818 162.802 107.472 161.116C108.111 158.609 111.025 158.027 112.643 158.609Z" fill="#066310" stroke="black"/>
<path d="M100.504 297.391C99.0086 298.956 94.452 299.968 93.9522 297.391C93.4525 294.815 96.0137 289.719 102.728 293.474C109.443 297.229 101.998 295.827 100.504 297.391Z" fill="#066310" stroke="black"/>
<path d="M419.736 283.486C420.736 281.567 424.831 279.326 426.029 281.662C427.226 283.998 426.184 289.605 418.69 287.868C411.196 286.131 418.736 285.405 419.736 283.486Z" fill="#066310" stroke="black"/>
<path d="M412.913 271.41C412.316 269.21 409.288 267.414 407.065 268.142C404.842 268.869 406.377 272.621 407.065 274.679C407.753 276.736 409.539 276.5 411.881 276.399C414.223 276.297 413.51 273.61 412.913 271.41Z" fill="#066310" stroke="black"/>
<path d="M150.226 136.252C150.203 134.088 152.757 130.181 154.914 131.676C157.072 133.171 158.798 138.607 151.37 140.61C143.942 142.613 150.249 138.416 150.226 136.252Z" fill="#066310" stroke="black"/>
<path d="M90.7832 170.128C89.2883 171.693 83.9335 171.481 83.4337 168.905C82.9339 166.328 84.4825 162.189 92.2096 164.987C99.9368 167.785 92.2781 168.563 90.7832 170.128Z" fill="#066310" stroke="black"/>
<path d="M98.1834 285.795C98.0636 287.865 94.3543 291.281 93.325 290.497C92.2957 289.712 91.7188 286.986 92.2285 284.855C92.7383 282.724 92.8364 278.803 95.206 279.527C97.5755 280.251 98.3033 283.726 98.1834 285.795Z" fill="#066310" stroke="black"/>
<path d="M97.2827 268.44C100.416 269.1 101.709 272.308 99.5936 274.669C94.7614 280.06 89.8779 269.341 89.8779 269.341C95.0376 268.44 94.1489 267.779 97.2827 268.44Z" fill="#066310" stroke="black"/>
<path d="M137.265 165.431C135.151 163.025 136.038 159.682 139.146 159.059C146.245 157.637 143.734 169.145 143.734 169.145C139.062 166.776 139.378 167.837 137.265 165.431Z" fill="#066310" stroke="black"/>
<path d="M107.43 254.924C108.02 257.995 102.163 263.266 99.2804 262.289C97.6737 260.045 101.285 251.651 104.295 249.596C107.306 247.542 106.839 251.853 107.43 254.924Z" fill="#066310" stroke="black"/>
<path d="M413.427 293.08C414.018 296.151 408.16 301.422 405.277 300.445C403.671 298.201 407.282 289.807 410.292 287.752C413.303 285.698 412.836 290.009 413.427 293.08Z" fill="#066310" stroke="black"/>
<path d="M134.406 160.175C134.997 163.246 129.14 168.517 126.257 167.54C124.65 165.296 128.261 156.901 131.272 154.847C134.282 152.792 133.816 157.104 134.406 160.175Z" fill="#066310" stroke="black"/>
<path d="M113.541 262.289C114.17 264.047 105.775 270.685 103.825 269.028C102.651 266.78 106.633 261.656 108.84 261.192C111.046 260.728 112.901 261.192 113.541 262.289Z" fill="#066310" stroke="black"/>
<path d="M127.332 251.163C127.422 248.174 122.478 245.766 119.966 246.619C118.405 248.359 120.74 252.562 123.257 254.297C125.774 256.033 127.865 254.297 127.332 251.163Z" fill="#066310" stroke="black"/>
<path d="M383.619 207.542C383.709 204.553 378.765 202.145 376.253 202.998C374.692 204.738 377.027 208.941 379.544 210.676C382.061 212.412 384.153 210.676 383.619 207.542Z" fill="#066310" stroke="black"/>
<path d="M141.613 141.601C141.703 138.612 136.759 136.203 134.248 137.056C132.686 138.797 135.022 142.999 137.538 144.735C140.055 146.471 142.147 144.735 141.613 141.601Z" fill="#066310" stroke="black"/>
<path d="M79.5482 210.194C76.5964 209.714 73.5632 214.301 74.081 216.903C75.6026 218.678 80.0741 216.911 82.1236 214.643C84.1731 212.374 82.7252 210.074 79.5482 210.194Z" fill="#066310" stroke="black"/>
<path d="M374.585 216.112C371.633 215.632 368.6 220.219 369.118 222.82C370.64 224.595 375.111 222.829 377.161 220.56C379.21 218.292 377.762 215.991 374.585 216.112Z" fill="#066310" stroke="black"/>
<path d="M150.586 122.982C149.975 125.91 154.422 129.145 157.045 128.744C158.886 127.303 157.321 122.757 155.146 120.608C152.971 118.459 150.608 119.803 150.586 122.982Z" fill="#066310" stroke="black"/>
<path d="M152.007 180.193C152.098 177.204 147.154 174.796 144.642 175.649C143.081 177.389 145.416 181.592 147.933 183.327C150.45 185.063 152.541 183.327 152.007 180.193Z" fill="#066310" stroke="black"/>
<path d="M364.831 228.582C365.356 226.616 389.992 239.852 389.992 239.852C389.992 239.852 391.957 242.604 391.171 245.749C389.992 243.652 365.749 232.251 363.914 233.3C362.21 230.941 364.831 228.582 364.831 228.582Z" fill="#6E3A17" stroke="black"/>
<path d="M395.103 261.606C395.103 261.606 388.19 244.478 383.702 241.163L393.83 246.298L395.103 261.606Z" fill="black" stroke="black"/>
<path d="M371.631 298.195C371.631 298.195 386.137 281.047 393.979 257.267L389.208 244.462L378.913 219.353C379.83 219.12 381.702 224.085 384.321 214.833C383.464 212.498 407.799 187.168 408.525 183.608C408.531 183.554 408.537 183.5 408.542 183.447C408.543 183.494 408.538 183.548 408.525 183.608C407.91 189.072 401.066 195.822 402.013 198.763C400.256 200.027 389.208 214.833 389.208 214.833C384.636 219.991 394.931 247.862 397.745 248.479C397.745 248.479 398.498 252.989 400.256 252.497C402.013 252.005 403.52 247.736 407.035 246.722C404.974 244.462 403.52 234.167 403.52 234.167C404.974 230.034 421.421 217.982 423.356 214.833C425.564 213.839 424.308 221.035 424.308 223.255C424.308 225.475 413.036 231.605 412.057 234.167C412.057 234.167 416.622 252.497 415.572 255.51C412.057 260.169 403.52 260.169 400.256 262.54C399.33 267.214 373.389 317.027 373.389 317.027L371.631 298.195Z" fill="#6E3A17"/>
<path d="M371.631 298.195C371.631 298.195 386.137 281.047 393.979 257.267L389.208 244.462L378.913 219.353C379.83 219.12 381.702 224.085 384.321 214.833C383.45 212.459 408.626 186.308 408.542 183.447C408.045 188.938 401.056 195.793 402.013 198.763C400.256 200.027 389.208 214.833 389.208 214.833C384.636 219.991 394.931 247.862 397.745 248.479C397.745 248.479 398.498 252.989 400.256 252.497C402.013 252.005 403.52 247.736 407.035 246.722C404.974 244.462 403.52 234.167 403.52 234.167C404.974 230.034 421.421 217.982 423.356 214.833C425.564 213.839 424.308 221.035 424.308 223.255C424.308 225.475 413.036 231.605 412.057 234.167C412.057 234.167 416.622 252.497 415.572 255.51C412.057 260.169 403.52 260.169 400.256 262.54C399.33 267.214 373.389 317.027 373.389 317.027L371.631 298.195Z" stroke="black"/>
<path d="M156.38 162.655C156.792 165.235 152.975 200.623 149.197 211.845L164.338 208.182L166.536 194.017C165.215 193.705 167.676 145.044 166.536 141.512C168.591 137.605 175.083 137.605 175.083 137.605C172.153 134.918 170.489 135.651 172.153 131.255C170.63 128.097 168.098 131.894 166.536 135.651C166.536 135.651 167.044 125.917 166.536 124.661L164.338 135.651C164.338 135.651 158.676 128.8 158.232 129.302L161.277 136.043C161.418 140.051 159.942 156.897 159.942 156.897C158.958 158.012 147.919 141.512 146.022 141.512C145.34 140.37 144.193 142.308 144.312 145.908C146.784 147.901 155.967 160.076 156.38 162.655Z" fill="#6E3A17" stroke="black"/>
<path d="M120.73 181.274C122.052 181.45 126.984 179.336 130.154 175.197" stroke="black"/>
<path d="M96.123 167.121C96.123 167.121 115.672 181.034 116.368 183.246C118.41 184.163 117.78 175.949 117.78 175.949C117.78 175.949 115.281 177.417 114.132 175.949C103.295 167.422 94.0578 159.626 95.1813 162.177C95.1813 162.177 94.6498 165.976 96.123 167.121Z" fill="#6E3A17"/>
<path d="M107.188 217.38C107.188 217.38 95.6522 212.908 83.6465 211.966M116.368 183.246C115.672 181.034 96.123 167.121 96.123 167.121C94.6498 165.976 95.1813 162.177 95.1813 162.177C94.0578 159.626 103.295 167.422 114.132 175.949C115.281 177.417 117.78 175.949 117.78 175.949C117.78 175.949 118.41 184.163 116.368 183.246Z" stroke="black"/>
<path d="M101.329 208.628C98.8308 210.477 141.885 255.551 141.885 256.676C141.885 256.676 142.78 243.698 141.885 242.102C115.441 217.658 116.779 213.678 113.882 211.203C116.047 210.91 141.885 180.947 141.885 179.016C143.299 176.91 144.138 169.038 144.138 169.038C139.665 180.947 112.413 205.979 111.307 206.053L113.882 202.19C115.078 201.801 120.372 180.947 121.929 179.016C122.881 178.208 123.141 168.518 125.47 167.429C124.093 166.269 122.535 157.185 119.032 155.841C119.594 162.203 116.306 179.016 116.779 180.947C116.779 180.947 107.655 200.701 109.054 202.19L101.329 208.628Z" fill="#6E3A17" stroke="black"/>
<path d="M137.85 373.782C161.723 383.168 195.619 413.549 195.619 418.553V439.988L292.294 435.35C295.827 435.303 302.481 460.391 305.281 458.31C303.812 445.259 312.239 439.988 312.239 439.988C313.077 440.134 313.62 411.153 318.037 410.303C318.548 410.857 326.154 404.736 326.154 404.736C324.857 403.464 326.154 396.619 326.154 396.619C325.202 394.001 340.826 373.782 337.982 371.34C337.982 371.34 329.441 371.772 326.154 373.782C322.868 375.792 302.035 421.109 300.411 421.203C298.788 421.297 292.294 418.553 292.294 418.553C290.471 415.468 275.828 426.073 275.828 426.073C274.946 424.35 270.505 424.422 270.494 422.826C272.418 419.006 297.396 394.532 297.396 394.532C296.79 393.588 315.709 372.502 318.037 371.34C318.453 370.589 302.928 371.491 302.035 371.34C302.639 374.019 278.701 398.475 277.915 398.475C277.915 398.475 265.391 411.112 262.84 412.158C262.84 412.158 247.498 419.611 245.678 418.553V402.417C244.187 400.516 260.963 385.951 267.015 385.951C267.015 385.951 280.168 374.689 277.915 373.782H265.391C265.047 379.324 225.027 394.353 227.82 398.475C226.824 398.96 204.425 388.239 203.701 385.951L199.99 390.589L178.885 376.442C178.885 376.442 137.214 347.2 135.284 346.525C132.345 349.531 110.822 331.682 110.822 331.682C106.862 326.689 125.776 299.301 125.776 299.301C125.776 299.301 138.457 285.667 141.314 289.24C142.601 286.806 141.314 273.961 139.691 271.614C139.286 274.272 121.601 291.874 121.601 291.874C122.388 287.253 131.562 259.572 133.661 259.555C134.78 257.956 131.805 251.901 131.805 251.901C132.138 248.374 122.992 268.973 122.992 268.973C119.603 271.268 116.599 291.874 116.599 291.874C116.599 291.874 110.822 283.75 110.332 279.037C108.571 272.873 104.686 269.403 102.157 268.973C102.873 272.873 101.126 278.669 101.126 278.669C103.081 278.985 115.361 299.301 115.361 299.301C116.133 304.262 102.157 328.392 102.157 328.392C98.5743 329.745 92.8728 301.571 92.8728 301.571C93.1875 300.325 86.9202 297.032 86.0643 295.175C85.5735 296.285 86.0643 306.316 86.0643 306.316C86.0643 306.316 75.2543 298.333 74.0978 297.032C71.6251 296.958 74.4374 300.843 72.4471 301.571C72.3135 302.656 89.3649 311.887 89.3649 311.887C92.8728 314.288 94.3167 340.565 94.3167 340.565C96.3217 346.525 137.85 373.782 137.85 373.782Z" fill="#6F3A17" stroke="black"/>
<path d="M398.632 254.566C396.076 256.597 395.552 261.642 399.156 261.642" stroke="black"/>
<path d="M247.194 418.581C247.194 418.581 231.347 424.385 231.348 421.61" stroke="black"/>
<path d="M110.209 329.611C110.209 329.611 108.16 341.238 109.684 341.384" stroke="black"/>
<path d="M119.866 294.754C118.551 296.482 119.917 299.685 123.134 299.959" stroke="black"/>
<path d="M411.003 279.938C411.003 279.938 390.86 278.756 390.516 279.938C388.973 279.938 384.703 285.907 385.151 286.929C385.795 287.992 413.405 286.304 415.068 284.815C413.305 281.338 412.511 284.119 411.003 279.938Z" fill="#6E3A17" stroke="black"/>
<path d="M85.6855 306.221C88.2257 306 92.2023 311.413 90.5449 312.517" stroke="black"/>
<path d="M111.542 206.004C105.894 207.814 110.033 212.906 113.468 211.216" stroke="black"/>
<path d="M226.871 398.324C237.124 404.31 232.119 405.523 232.119 405.523" stroke="black"/>
<path d="M380.728 177.412C380.728 177.412 393.333 200.956 393.758 202.298C394.183 203.641 392.473 206.082 391.708 205.665C390.943 205.248 378.677 183.739 376.483 182.389C374.29 181.039 367.261 179.168 366.968 178.436C369.092 179.168 372.97 179.168 372.97 179.168C374.159 179.466 365.65 171.995 365.65 171.995L372.97 177.412C373.61 175.62 375.751 175.069 375.751 175.069C375.579 172.254 379.895 162.926 380.624 158.233C380.679 156.593 380.728 155.868 380.728 157.063C380.728 157.408 380.692 157.801 380.624 158.233C380.491 162.206 380.323 171.547 380.728 171.995C381.302 172.629 393.758 157.977 395.807 158.527C395.807 158.527 388.017 168.844 389.951 169.653C389.951 169.653 382.095 175.069 380.728 177.412Z" fill="#6E3A17"/>
<path d="M393.758 202.298C393.333 200.956 380.728 177.412 380.728 177.412C382.095 175.069 389.951 169.653 389.951 169.653C388.017 168.844 395.807 158.527 395.807 158.527C393.758 157.977 381.302 172.629 380.728 171.995C380.155 171.361 380.728 152.975 380.728 157.063C380.728 161.152 375.563 171.995 375.751 175.069C375.751 175.069 373.61 175.62 372.97 177.412L365.65 171.995C365.65 171.995 374.159 179.466 372.97 179.168C372.97 179.168 369.092 179.168 366.968 178.436C367.261 179.168 374.29 181.039 376.483 182.389C378.677 183.739 390.943 205.248 391.708 205.665C392.473 206.082 394.183 203.641 393.758 202.298Z" stroke="black"/>
<path d="M417.982 205.007C415.892 203.409 407.9 201.442 409.683 205.007C411.466 208.572 411.405 207.343 413.863 209.126C416.322 210.908 416.261 209.986 417.613 208.572C417.846 208.329 418.072 208.111 418.275 207.909C419.252 206.937 419.711 206.33 417.982 205.007Z" fill="#066310"/>
<path d="M422.366 215.939C423.022 215.519 418.734 208.349 417.982 207.528M409.683 205.007C407.9 201.442 415.892 203.409 417.982 205.007C420.071 206.605 418.965 207.159 417.613 208.572C416.261 209.986 416.322 210.908 413.863 209.126C411.405 207.343 411.466 208.572 409.683 205.007Z" stroke="black"/>
<path d="M113.73 371.359C113.73 371.359 111.624 366.091 113.73 362.931C113.73 359.243 125.583 361.087 125.583 361.087C125.583 361.087 361.846 361.087 388.185 350.815C388.185 350.815 397.14 348.708 400.301 350.815C402.935 350.815 402.144 361.087 400.301 362.931C392.399 375.047 308.64 375.047 308.64 375.047C308.64 375.047 122.588 380.142 113.73 371.359Z" fill="#350E09" stroke="black"/>
<path d="M123.427 364.521C120.911 362.262 120.184 356.798 123.427 353.651C125.269 350.791 147.455 350.791 147.455 350.791C151.906 353.651 237.388 357.661 243.565 356.798C251.191 359.086 348.538 352.334 353.406 350.791C353.406 350.791 385.346 341.679 388.876 344.784C391.157 345.553 391.157 356.798 388.876 359.086C387.525 362.262 322.627 366.137 316.793 364.521C310.519 362.747 222.858 369.769 198.943 369.098C196.463 364.521 127.448 366.137 123.427 364.521Z" fill="#350E09" stroke="black"/>
<path d="M133.478 357.435C134.888 354.848 141.238 228.322 141.238 228.322H155.584C153.938 229.968 148.058 353.672 148.764 357.435C148.764 360.257 133.477 360.257 133.478 357.435Z" fill="#350E09" stroke="black"/>
<path d="M351.916 228.967C349.937 221.476 349.689 207.197 349.689 207.197L365.028 204.723C365.028 204.723 370.961 274.287 373.166 281.79C373.557 285.289 377.389 341.909 380.093 348.091C379.367 349.45 356.497 352.911 355.508 351.922C353.895 349.697 354.89 271.938 353.895 269.539C352.901 267.141 352.912 237.694 351.916 228.967Z" fill="#350E09" stroke="black"/>
<path d="M286.366 153.83C293.886 147.489 301.224 136.346 309.105 126.652C317.53 128.645 328.492 136.708 334.471 143.049C326.408 151.746 314.631 172.13 314.631 172.13C314.631 172.13 291.621 159.809 286.366 153.83Z" fill="#FC343E" stroke="black"/>
<path d="M323.336 157.815L313.693 152.514L305.146 163.94L316.298 169.425L323.336 157.815Z" stroke="black"/>
<path d="M325.164 135.648L318.538 130.849L311.728 137.934L317.669 142.916L325.164 135.648Z" stroke="black"/>
<path d="M317.942 142.961L328.638 149.589L333.848 143.235L325.438 135.374L317.942 142.961Z" stroke="black"/>
<path d="M312.366 138.893L305.054 132.221L298.152 141.133L305.054 147.075L312.366 138.893Z" stroke="black"/>
<path d="M320.913 145.109C319.817 144.744 312.366 138.893 312.366 138.893L305.19 147.212L313.554 152.285L320.913 145.109Z" stroke="black"/>
<path d="M313.692 152.331L320.868 145.155L328.775 149.817L323.382 157.678L313.692 152.331Z" stroke="black"/>
<path d="M305.236 147.395L298.106 141.087L288.874 152.057L298.106 157.404L305.236 147.395Z" stroke="black"/>
<path d="M311.498 137.705L305.008 131.992L309.807 126.644L318.537 130.849L311.498 137.705Z" stroke="black"/>
<path d="M305.142 124.069C305.142 124.069 308.536 119.103 312.923 119.599C315.737 119.268 340.402 133.835 341.064 136.815C341.56 138.222 336.18 143.85 335.353 143.685C333.366 144.016 304.894 125.227 305.142 124.069Z" fill="#FC343E" stroke="black"/>
<path d="M313.783 152.468L305.19 147.486L298.243 157.358L305.19 163.986L313.783 152.468Z" stroke="black"/>
<path d="M344.536 189.51C355.843 194.166 349.606 185.519 368.75 192.92C369.238 197 357.588 195.802 357.588 198.032C345.673 195.743 345.042 196.481 345.237 196.847C345.323 196.949 345.376 197 345.376 197C345.376 197 345.283 196.934 345.237 196.847C344.722 196.236 343.026 193.79 344.536 189.51Z" fill="#FC343E"/>
<path d="M344.536 189.51C355.843 194.166 349.606 185.519 368.75 192.92C369.238 197 357.588 195.802 357.588 198.032C342.85 195.201 345.376 197 345.376 197C345.376 197 342.774 194.503 344.536 189.51Z" stroke="black"/>
<path d="M353.217 185.033C333.454 180.092 338.86 183.399 327.553 178.743C325.792 183.736 329.843 189.112 329.843 189.112C329.843 189.112 335.863 194.796 350.6 197.627C350.6 195.397 347.801 185.983 353.217 185.033Z" fill="#FC343E" stroke="black"/>
<path d="M336.565 177.889C316.801 172.948 321.646 173.233 310.339 168.577C308.578 173.57 313.873 181.369 313.873 181.369C313.873 181.369 316.981 183.8 331.719 186.631C331.719 184.4 331.149 178.839 336.565 177.889Z" fill="#FC343E" stroke="black"/>
<path d="M321.246 169.24C301.788 165.822 308.25 164.302 296.943 159.646C295.181 164.639 299.715 172.917 299.715 172.917C299.715 172.917 305.26 176.317 319.997 179.148C319.997 176.918 319.082 171.987 321.246 169.24Z" fill="#FC343E" stroke="black"/>
<path d="M304.163 160.884C289.309 152.378 286.371 150.865 274.086 147.126C271.059 151.399 282.632 164.561 282.632 164.561C282.632 164.561 283.918 167.796 298.656 170.627C298.656 168.397 304.163 164.561 304.163 160.884Z" fill="#FC343E" stroke="black"/>
<path d="M287.041 145.4C266.871 144.799 256.773 140.415 256.773 140.415L265.51 149.077C265.51 149.077 271.054 152.477 285.792 155.308C285.792 153.078 284.876 148.148 287.041 145.4Z" fill="#FC343E" stroke="black"/>
<path d="M271.297 138.38C251.128 137.779 242.835 133.337 242.835 133.337L251.571 141.999C251.571 141.999 256.088 145.997 271.297 144.97C271.297 142.74 272.417 140.615 271.297 138.38Z" fill="#FC343E" stroke="black"/>
<path d="M220.184 148.306C233.766 143.344 241.783 135.324 241.783 135.324L240.154 139.933C240.154 139.933 235.754 148.306 224.339 154.57C224.339 152.34 218.137 150.104 220.184 148.306Z" fill="#FC343E" stroke="black"/>
<path d="M141.696 218.217C146.802 211.812 153.225 210.907 155.531 208.601C158.511 205.622 159.4 216.506 159.4 216.506C159.4 216.506 148.833 226.105 143.92 227.787C142.191 222.27 142.108 222.582 141.696 218.217Z" fill="#FC343E" stroke="black"/>
<path d="M155.695 208.107C161.707 203.472 164.985 200.613 168.294 200.613C172.508 200.613 178.753 203.472 178.753 203.472C178.753 203.472 161.02 215.235 156.107 216.918C159.73 211.401 156.107 212.471 155.695 208.107Z" fill="#FC343E" stroke="black"/>
<path d="M167.465 200.295C174.774 199.481 180.054 194.52 183.363 194.52C187.577 194.52 187.563 197.566 187.563 197.566C187.563 197.566 184.4 202.894 179.488 204.577C165.077 208.282 163.266 208.694 167.465 200.295Z" fill="#FC343E" stroke="black"/>
<path d="M160.801 194.52C168.11 193.706 183.857 187.648 187.167 187.648C191.38 187.648 185.455 198.301 185.455 198.301C185.455 198.301 177.736 197.119 172.823 198.802C158.413 202.507 156.602 202.919 160.801 194.52Z" fill="#FC343E" stroke="black"/>
<path d="M176.953 182.488C184.261 181.674 192.487 177.562 195.422 176.184C199.236 174.393 193.711 186.837 193.711 186.837C193.711 186.837 192.761 192.241 187.849 193.924C187.849 189.112 173.062 188.674 176.953 182.488Z" fill="#FC343E" stroke="black"/>
<path d="M192.965 173.624C200.504 172.095 211.435 167.319 211.435 167.319L203.765 175.138C203.765 175.138 199.154 183.519 194.242 185.202C194.915 183.519 192.965 175.916 192.965 173.624Z" fill="#FC343E" stroke="black"/>
<path d="M203.206 162.118C210.247 161.434 216.116 160.372 216.116 160.372L214.007 163.632C214.007 163.632 211.862 169.644 206.949 171.326C207.622 169.644 204.661 164.193 203.206 162.118Z" fill="#FC343E" stroke="black"/>
<path d="M212.628 154.939C219.42 153.109 225.538 153.193 225.538 153.193L223.428 156.453C223.428 156.453 216.903 163.119 212.628 159.062C212.628 158.239 212.931 156.453 212.628 154.939Z" fill="#FC343E" stroke="black"/>
<path d="M243.35 142.163L242.871 133.895C234.467 145.05 152.589 221.77 141.129 227.118C141.894 231.396 144.961 231.308 147.7 233.688C169.397 225.743 243.35 142.163 243.35 142.163Z" fill="#FC343E" stroke="black"/>
<path d="M243.639 142.371L242.976 134.627C255.367 142.371 356.453 199.393 368.542 203.108C368.376 207.45 360.017 210.05 357.633 212.786C336.349 204.435 243.639 142.371 243.639 142.371Z" fill="#FC343E" stroke="black"/>
<path d="M214.268 225.961C214.37 221.561 217.951 213.682 222.044 213.682C226.137 213.682 229.923 222.789 229.923 226.677C229.922 230.565 229.309 256.453 229.309 256.453L220.714 260.955C220.714 260.955 216.314 254.304 215.291 254.099C214.268 253.895 214.165 230.36 214.268 225.961Z" fill="#F8F9BA" stroke="black"/>
<path d="M216.826 233.123C216.826 229.133 218.77 221.151 222.147 221.356C225.523 221.561 226.853 226.882 227.263 232.407C227.559 238.137 226.137 260.341 226.137 260.341H218.258C218.258 260.341 216.826 237.114 216.826 233.123Z" fill="#F68D3C" stroke="black"/>
<path d="M208.356 265.838C208.356 265.838 197.272 236.976 193.88 237.926C190.488 238.876 189.459 259.77 189.459 259.77L201.075 272.339L208.356 265.838Z" fill="#F8F9BA" stroke="black"/>
<path d="M205.755 266.185L194.92 242.693L191.713 258.123L201.595 269.479L205.755 266.185Z" fill="#F68D3C" stroke="black"/>
<path d="M181.983 273.857C181.034 273.552 180.075 272.713 179.217 271.386C178.364 270.068 177.643 268.316 177.152 266.28C176.17 262.207 176.125 257.064 177.712 252.122C179.459 246.684 182.015 242.58 184.875 240.092C187.728 237.61 190.85 236.757 193.813 237.708C194.596 237.96 195.212 238.659 195.631 239.847C196.05 241.034 196.243 242.632 196.224 244.519C196.187 248.288 195.308 253.077 193.887 257.713C192.466 262.351 190.516 266.789 188.363 269.87C187.285 271.413 186.177 272.585 185.084 273.281C184.001 273.971 182.968 274.173 181.983 273.857Z" fill="#F8F9BA" stroke="black"/>
<path d="M239.264 277.273C240.166 279.841 240.019 282.114 239.177 284.137C238.329 286.173 236.762 287.988 234.775 289.596C230.795 292.816 225.242 295.116 220.846 296.659C216.516 298.18 211.031 298.768 206.186 297.667C201.355 296.569 197.204 293.807 195.391 288.644C193.572 283.462 194.929 277.024 197.887 271.45C200.847 265.873 205.33 261.313 209.57 259.825C211.649 259.095 214.305 259.131 217.217 259.8C220.122 260.468 223.239 261.756 226.209 263.478C232.169 266.932 237.435 272.065 239.264 277.273Z" fill="#F8F9BA" stroke="black"/>
<path d="M213.964 251.235C215.733 250.983 220.368 260.334 220.368 260.334V261.598C220.368 261.598 212.11 265.221 210.847 264.547C208.572 264.968 209.92 251.657 213.964 251.235Z" fill="#E15258" stroke="black"/>
<path d="M232.331 256.038C230.898 254.353 221.294 260.503 221.294 260.503L220.872 262.02C220.872 262.02 226.938 269.939 228.034 268.844C230.309 268.844 233.763 257.723 232.331 256.038Z" fill="#E15258" stroke="black"/>
<path d="M222.171 261.208C222.046 261.871 221.742 262.414 221.377 262.761C221.011 263.108 220.617 263.234 220.271 263.169C219.926 263.104 219.605 262.843 219.391 262.385C219.177 261.929 219.092 261.313 219.218 260.65C219.343 259.988 219.647 259.445 220.012 259.098C220.378 258.75 220.772 258.624 221.117 258.689C221.463 258.755 221.784 259.016 221.998 259.473C222.211 259.929 222.296 260.545 222.171 261.208Z" fill="#E15258" stroke="black"/>
<path d="M217.544 286.035C217.544 286.035 221.792 289.156 222.919 285.255" stroke="black"/>
<path d="M217.432 285.945C217.432 285.945 214.811 290.519 212.201 287.408" stroke="black"/>
<path d="M219.105 277.54C218.151 276.76 212.69 278.061 211.91 279.968C212.083 281.701 214.77 283.522 216.851 282.915C218.932 282.308 219.624 278.927 219.105 277.54Z" fill="#F58BC7" stroke="black"/>
<circle cx="208.651" cy="276.444" r="2.1671" fill="black"/>
<circle cx="220.103" cy="273.15" r="2.1671" fill="black"/>
<path d="M216.765 282.915L217.458 286.382" stroke="black"/>
<path d="M221.477 324.482C221.477 324.482 233.491 327.857 231.71 328.604C229.93 329.351 231 349.143 231.71 354.613C232.42 360.083 222.253 363.914 221.477 356.177C220.701 348.439 221.477 324.482 221.477 324.482Z" fill="#F5C115" stroke="black"/>
<path d="M253.726 321.645C253.726 321.645 265.74 325.019 263.959 325.766C262.179 326.514 263.249 346.306 263.959 351.776C264.669 357.246 254.502 361.077 253.726 353.339C252.95 345.602 253.726 321.645 253.726 321.645Z" fill="#F5C115" stroke="black"/>
<path d="M227.108 360.255C232.535 358.998 231.506 354.371 231.506 354.371C231.506 354.371 229.278 355.856 226.822 356.428C224.366 356.999 221.796 356.77 221.796 356.77C221.796 356.77 221.682 361.511 227.108 360.255Z" fill="#54271D" stroke="black"/>
<path d="M259.357 357.417C264.784 356.161 263.755 351.534 263.755 351.534C263.755 351.534 261.527 353.019 259.071 353.59C256.615 354.161 254.045 353.933 254.045 353.933C254.045 353.933 253.931 358.674 259.357 357.417Z" fill="#54271D" stroke="black"/>
<path d="M212.713 345.289C212.447 336.393 216.795 321.971 216.795 321.971L226.543 330.387C226.543 330.387 222.388 338.59 222.015 344.663C221.642 350.309 222.388 357.34 222.388 357.34C223.027 360.696 215.046 363.552 213.341 358.598L212.713 345.289Z" fill="#F5C115" stroke="black"/>
<path d="M244.962 342.451C244.696 333.556 249.044 319.133 249.044 319.133L258.792 327.55C258.792 327.55 254.637 335.753 254.264 341.825C253.891 347.471 254.637 354.503 254.637 354.503C255.276 357.859 247.295 360.715 245.59 355.761L244.962 342.451Z" fill="#F5C115" stroke="black"/>
<path d="M217.626 361.169C223.109 361.169 222.31 355.685 222.31 355.685C222.31 355.685 220.596 356.256 218.083 356.77C215.569 357.284 213.342 355.685 213.342 355.685C213.342 355.685 212.142 361.169 217.626 361.169Z" fill="#54271D" stroke="black"/>
<path d="M249.875 358.331C255.358 358.331 254.559 352.848 254.559 352.848C254.559 352.848 252.845 353.419 250.332 353.933C247.818 354.447 245.591 352.848 245.591 352.848C245.591 352.848 244.391 358.331 249.875 358.331Z" fill="#54271D" stroke="black"/>
<path d="M235.188 292.428C262.914 299.424 226.896 233.867 232.726 209.121L253.715 206.271C253.715 206.271 263.786 233.114 254.658 232.484C245.53 231.855 284.188 305.792 275.481 306.031C266.775 306.271 273.279 337.255 240.5 333.887C207.721 330.518 210.96 301.885 210.96 301.885C210.96 301.885 207.463 285.431 235.188 292.428Z" fill="#F5C115" stroke="black"/>
<path d="M237.35 234.11C235.565 226.793 235.565 212.161 235.565 212.161L238.51 215.016C238.51 215.016 237.796 226.883 242.079 238.839C245.38 248.118 247.432 257.04 248.146 264.892C249.343 274.259 246.897 297.548 246.897 294.068C246.897 290.589 248.235 281.666 246.897 270.692C245.559 259.717 239.134 241.426 237.35 234.11Z" fill="#8F6E4F"/>
<path d="M240.105 216.109C240.105 216.109 209.402 193.401 236.586 176.314C261.451 160.021 272.747 193.401 272.747 193.401C272.747 193.401 271.102 209.978 276.892 212.816C282.681 215.655 256.68 231.436 256.227 227.576C255.774 223.716 240.105 216.109 240.105 216.109Z" fill="#F5C115" stroke="black"/>
<path d="M219.985 184.015C222.069 184.833 224.993 185.001 226.29 187.6" stroke="black" stroke-width="2"/>
<path d="M280.982 214.941C282.288 217.137 282.067 220.052 280.499 223.055C278.935 226.049 276.064 229.053 272.24 231.328C268.417 233.602 264.407 234.692 261.029 234.637C257.642 234.582 254.975 233.385 253.669 231.189C252.362 228.993 252.584 226.079 254.152 223.076C255.716 220.081 258.587 217.077 262.41 214.803C266.233 212.529 270.243 211.439 273.621 211.494C277.009 211.549 279.675 212.745 280.982 214.941Z" fill="#F07922" stroke="black"/>
<circle cx="263.408" cy="227.264" r="1.22059" fill="black"/>
<ellipse cx="250.521" cy="214.491" rx="2.29925" ry="2.29923" fill="black"/>
<ellipse cx="264.628" cy="205.408" rx="2.29925" ry="2.29923" fill="black"/>
<path d="M236.754 198.794C234.514 194.196 240.292 192.342 241.977 196.013" stroke="#DC9A1B"/>
<path d="M255.563 188.163C253.322 183.565 259.101 181.711 260.786 185.382" stroke="#DC9A1B"/>
<circle cx="273.229" cy="221.133" r="1.22059" fill="black"/>
<path d="M224.117 214.641C224.117 214.641 219.952 215.126 218.016 213.089C214.365 209.248 219.122 207.615 222.456 204.944C224.882 203 226.482 200.3 226.597 199.496C227.386 201.24 229.756 205.761 230.11 205.816C230.573 206.361 227.549 214.26 224.117 214.641Z" fill="#F5C115" stroke="black"/>
<path d="M223.953 212.68C223.953 212.68 221.162 213.596 219.977 212.326C217.741 209.931 221.912 207.427 223.953 205.761C225.439 204.549 227.043 201.795 227.113 201.294C227.597 202.381 229.048 205.201 229.265 205.235C229.548 205.574 225.996 212.163 223.953 212.68Z" fill="#F07922" stroke="black"/>
<path d="M267.674 173.159C265.934 174.234 261.347 176.037 261.347 176.037C261.347 176.037 263.024 177.429 264.447 179.043C265.871 180.656 267.199 182.238 267.199 182.238C267.199 182.238 271.28 181.225 273.083 179.865C274.886 178.505 275.835 176.797 275.582 174.139C275.329 171.482 272.861 169.394 271.343 169.52C269.824 169.647 269.414 172.083 267.674 173.159Z" fill="#F5C115" stroke="black"/>
<path d="M269.414 174.297C268.269 174.963 262.898 177.291 262.898 177.291C262.898 177.291 264.002 178.153 264.939 179.152C265.875 180.151 266.345 180.941 266.345 180.941C266.345 180.941 270.821 179.189 272.008 178.347C273.194 177.504 274.041 176.828 273.874 175.183C273.708 173.538 273.007 171.625 272.008 171.703C271.009 171.782 270.559 173.631 269.414 174.297Z" fill="#F07922" stroke="black"/>
<path d="M220.742 177.328C223.345 178.62 224.305 182.342 222.614 185.748C220.924 189.154 217.379 190.64 214.776 189.348C212.173 188.056 211.214 184.334 212.904 180.928C214.594 177.523 218.139 176.036 220.742 177.328Z" fill="#F17923" stroke="black"/>
<path d="M246.84 165.277C246.84 165.277 246.31 170.208 247.485 171.877" stroke="black" stroke-width="2"/>
<path d="M253.277 163.345C253.277 164.589 252.579 165.76 251.359 166.639C250.14 167.518 248.431 168.077 246.52 168.077C244.609 168.077 242.9 167.518 241.681 166.639C240.461 165.76 239.763 164.589 239.763 163.345C239.763 162.102 240.461 160.931 241.681 160.051C242.9 159.172 244.609 158.613 246.52 158.613C248.431 158.613 250.14 159.172 251.359 160.051C252.579 160.931 253.277 162.102 253.277 163.345Z" fill="#F17923" stroke="black"/>
<ellipse cx="225.775" cy="299.215" rx="3.50556" ry="3.42848" fill="#62331D"/>
<ellipse cx="235.702" cy="305.215" rx="3.40957" ry="4.28561" fill="#62331D"/>
<ellipse cx="248.885" cy="302.841" rx="3.935" ry="4.28559" fill="#62331D"/>
<ellipse cx="253.697" cy="292.622" rx="3.07617" ry="3.16473" fill="#62331D"/>
<ellipse cx="254.31" cy="279.501" rx="2.46279" ry="2.30763" fill="#62331D"/>
<ellipse cx="252.159" cy="264.798" rx="1.53809" ry="2.37358" fill="#62331D"/>
<ellipse cx="248.791" cy="249.304" rx="1.73019" ry="2.17578" fill="#62331D"/>
<ellipse cx="245.478" cy="232.03" rx="1.58252" ry="1.64829" fill="#62331D"/>
<path d="M170.624 337.205C169.845 338.314 169.055 339.525 168.265 340.737C167.881 341.326 167.497 341.914 167.114 342.491C165.935 344.269 164.761 345.948 163.594 347.259C162.415 348.582 161.302 349.461 160.262 349.74C159.756 349.876 159.266 349.869 158.78 349.7C158.288 349.529 157.768 349.181 157.226 348.585C155.404 346.58 155.368 343.968 156.432 340.936C157.498 337.899 159.628 334.571 161.931 331.291C164.213 328.041 166.719 325.403 169.026 323.862C171.367 322.298 173.313 321.974 174.655 322.916C176.51 324.218 177.388 325.327 177.687 326.309C177.978 327.264 177.751 328.207 177.117 329.273C176.475 330.353 175.46 331.485 174.278 332.795L174.22 332.858C173.065 334.137 171.776 335.564 170.624 337.205Z" fill="#D79D4A" stroke="black"/>
<path d="M204.735 336.634C205.513 337.743 206.303 338.954 207.094 340.166C207.478 340.754 207.861 341.343 208.244 341.92C209.423 343.698 210.598 345.377 211.765 346.688C212.943 348.011 214.056 348.89 215.096 349.169C215.602 349.305 216.092 349.298 216.579 349.129C217.071 348.958 217.59 348.61 218.133 348.014C219.955 346.009 219.991 343.397 218.926 340.365C217.86 337.328 215.73 333.999 213.428 330.72C211.146 327.469 208.639 324.832 206.332 323.291C203.992 321.727 202.045 321.403 200.703 322.345C198.849 323.647 197.97 324.755 197.671 325.738C197.38 326.693 197.607 327.636 198.241 328.702C198.883 329.782 199.898 330.914 201.081 332.223L201.138 332.287C202.293 333.565 203.582 334.992 204.735 336.634Z" fill="#D79D4A" stroke="black"/>
<path d="M166.128 346.308V346.272L166.122 346.236C166.064 345.835 166.091 345.173 166.242 344.291C166.39 343.42 166.652 342.368 167.037 341.204C167.806 338.875 169.06 336.118 170.855 333.478C174.445 328.196 180.157 323.43 188.461 323.385C196.775 323.339 201.767 327.464 204.774 332.407C207.798 337.376 208.806 343.168 209.083 346.351C209.266 348.456 208.68 350.046 207.581 351.275C206.467 352.52 204.793 353.429 202.747 354.081C198.647 355.388 193.244 355.607 188.458 355.607C183.674 355.607 178.031 355.397 173.596 354.091C171.38 353.438 169.508 352.524 168.196 351.262C166.898 350.014 166.128 348.41 166.128 346.308Z" fill="#D79D4A" stroke="black"/>
<path d="M176.906 288.314C180.884 292.773 180.052 300.149 174.857 304.781C169.662 309.414 162.24 309.401 158.263 304.941C154.285 300.481 155.117 293.106 160.312 288.473C165.507 283.84 172.928 283.854 176.906 288.314Z" fill="#D79D4A" stroke="black"/>
<path d="M198.55 288.433C194.572 292.892 195.405 300.268 200.599 304.901C205.794 309.533 213.216 309.52 217.193 305.06C221.171 300.6 220.339 293.225 215.144 288.592C209.949 283.959 202.528 283.973 198.55 288.433Z" fill="#D79D4A" stroke="black"/>
<path d="M172.211 292.501C174.154 294.68 173.775 298.331 171.173 300.652C168.572 302.972 164.901 302.933 162.957 300.754C161.014 298.574 161.393 294.923 163.995 292.603C166.596 290.282 170.267 290.322 172.211 292.501Z" fill="#FFECC6" stroke="black"/>
<path d="M203.946 292.681C202.002 294.86 202.381 298.512 204.983 300.832C207.584 303.152 211.255 303.113 213.199 300.934C215.142 298.755 214.763 295.103 212.162 292.783C209.56 290.463 205.889 290.502 203.946 292.681Z" fill="#FFECC6" stroke="black"/>
<path d="M210.769 306.616C210.769 318.595 200.449 328.355 187.655 328.355C174.861 328.355 164.541 318.595 164.541 306.616C164.541 294.638 174.861 284.877 187.655 284.877C200.449 284.877 210.769 294.638 210.769 306.616Z" fill="#D79D4A" stroke="black"/>
<circle cx="178.305" cy="309.05" r="1.9147" fill="black" stroke="black"/>
<circle cx="201.445" cy="309.05" r="1.93115" fill="black" stroke="black"/>
<path d="M199.823 318.911C199.815 321.183 198.538 322.935 196.633 324.143C194.713 325.361 192.197 325.993 189.875 325.993C187.528 325.993 184.85 325.515 182.777 324.449C180.713 323.387 179.325 321.791 179.325 319.545C179.325 317.225 180.794 314.388 182.915 312.103C185.036 309.819 187.666 308.238 189.858 308.23C192.055 308.388 194.44 309.846 196.351 311.925C198.258 313.998 199.61 316.597 199.823 318.911Z" fill="#FFECC6" stroke="black"/>
<path d="M194.161 316.245C194.161 318.141 192.322 319.811 189.875 319.811C187.428 319.811 185.589 318.141 185.589 316.245C185.589 314.349 187.428 312.679 189.875 312.679C192.322 312.679 194.161 314.349 194.161 316.245Z" fill="black" stroke="black"/>
<path d="M189.931 319.983V322.828" stroke="black"/>
<path d="M189.876 322.335C189.876 323.976 196.878 323.921 196.495 320.311" stroke="black"/>
<path d="M190.095 322.335C190.095 323.976 183.093 323.921 183.476 320.311" stroke="black"/>
<path d="M182.199 357.478C180.319 359.718 178.887 361.038 177.743 361.732C176.619 362.414 175.817 362.469 175.14 362.246C174.416 362.008 173.745 361.429 172.942 360.627C172.79 360.475 172.634 360.316 172.473 360.152C171.81 359.476 171.064 358.716 170.185 358.037C168.137 356.458 166.714 354.408 166.196 352.316C165.681 350.238 166.051 348.107 167.612 346.287C169.265 344.36 170.635 343.436 172.214 343.449C173.836 343.463 175.84 344.461 178.756 346.864C181.644 349.244 183.03 351.267 183.442 352.98C183.845 354.655 183.336 356.124 182.199 357.478Z" fill="#D79D4A" stroke="black"/>
<path d="M194.142 357.478C196.022 359.718 197.454 361.038 198.598 361.732C199.721 362.414 200.523 362.469 201.201 362.246C201.924 362.008 202.595 361.429 203.399 360.627C203.551 360.475 203.707 360.316 203.868 360.152C204.531 359.476 205.277 358.716 206.156 358.037C208.203 356.458 209.627 354.408 210.145 352.316C210.66 350.238 210.29 348.107 208.729 346.287C207.075 344.36 205.706 343.436 204.127 343.449C202.504 343.463 200.501 344.461 197.585 346.864C194.696 349.244 193.311 351.267 192.899 352.98C192.496 354.655 193.005 356.124 194.142 357.478Z" fill="#D79D4A" stroke="black"/>
<path d="M176.994 351.676C180.401 357.702 178.841 364.897 173.697 367.805C168.553 370.714 161.583 368.342 158.176 362.316C154.769 356.29 156.329 349.095 161.473 346.186C166.617 343.278 173.587 345.65 176.994 351.676Z" fill="#D79D4A" stroke="black"/>
<path d="M199.088 350.986C195.681 357.013 197.241 364.208 202.385 367.116C207.529 370.024 214.499 367.652 217.906 361.626C221.313 355.6 219.753 348.405 214.609 345.497C209.465 342.588 202.495 344.96 199.088 350.986Z" fill="#D89D4A" stroke="black"/>
<path d="M173.67 354.871C175.602 358.288 174.697 362.321 171.838 363.937C168.978 365.554 165.057 364.251 163.125 360.834C161.193 357.417 162.098 353.384 164.957 351.768C167.817 350.151 171.738 351.454 173.67 354.871Z" fill="#FFECC6" stroke="black"/>
<path d="M202.322 354.871C200.39 358.288 201.295 362.321 204.154 363.937C207.014 365.554 210.936 364.251 212.867 360.834C214.799 357.417 213.895 353.384 211.035 351.768C208.176 350.151 204.254 351.454 202.322 354.871Z" fill="#FFECC6" stroke="black"/>
<path d="M296.231 343.264C293.816 336.488 303.786 321.378 307.213 321.534L340.548 315.615C342.573 314.602 356.904 329.712 355.736 332.048L335.797 361.801C335.875 362.891 320.376 363.358 320.142 362.346L296.231 343.264Z" fill="#AC865F" stroke="black"/>
<path d="M340.282 340.576C340.332 341.732 340.426 342.833 340.52 343.871C340.533 344.009 340.545 344.146 340.558 344.282C340.639 345.174 340.716 346.013 340.761 346.811C340.864 348.656 340.787 350.194 340.239 351.48C339.171 353.986 336.166 355.817 327.937 356.606C320.729 357.298 317.23 355.927 315.38 353.552C314.44 352.345 313.884 350.832 313.515 349.071C313.172 347.429 312.999 345.612 312.813 343.669C312.799 343.523 312.785 343.376 312.771 343.228C311.945 334.614 317.54 327.937 325.117 327.211C332.681 326.485 339.495 332.435 340.282 340.576Z" fill="#7D5B3B" stroke="black"/>
<path d="M310.408 346.049C310.408 349.788 307.377 352.818 303.639 352.818C301.293 352.818 299.396 352.249 298.093 351.149C296.804 350.059 296.03 348.394 296.03 346.049C296.03 342.356 299.264 339.28 303.639 339.28C305.817 339.28 307.498 340.046 308.636 341.252C309.779 342.463 310.408 344.152 310.408 346.049Z" fill="#AC865F" stroke="black"/>
<path d="M362.656 339.496C362.656 343.477 359.237 346.752 354.96 346.752C353.34 346.752 351.064 345.935 349.186 344.575C347.3 343.209 345.955 341.401 345.955 339.496C345.955 337.501 346.786 335.7 348.312 334.391C349.842 333.078 352.096 332.239 354.96 332.239C359.237 332.239 362.656 335.514 362.656 339.496Z" fill="#AC865F" stroke="black"/>
<path d="M338.522 327.297C340.626 327.998 346.935 335.164 346 338.357" stroke="black"/>
<path d="M311.343 330.059C308.825 330.903 308.494 340.208 309.818 343.077" stroke="black"/>
<path d="M349.555 296.601C348.529 297.847 346.948 298.372 345.086 298.171C343.218 297.97 341.099 297.034 339.111 295.397C337.134 293.769 335.815 291.757 335.265 289.841C334.714 287.923 334.943 286.153 335.966 284.911C336.993 283.663 338.698 283.061 340.689 283.195C342.678 283.328 344.906 284.195 346.879 285.82C348.841 287.436 350.044 289.507 350.483 291.493C350.924 293.485 350.59 295.344 349.555 296.601Z" fill="#AC8560" stroke="black"/>
<path d="M344.867 295.001C344.317 295.669 343.461 295.965 342.415 295.853C341.363 295.739 340.151 295.209 339.004 294.264C337.867 293.328 337.117 292.177 336.805 291.093C336.493 290.007 336.632 289.041 337.179 288.376C337.731 287.706 338.662 287.365 339.79 287.44C340.914 287.515 342.186 288.007 343.319 288.94C344.44 289.864 345.123 291.044 345.371 292.167C345.621 293.297 345.426 294.322 344.867 295.001Z" fill="#7D5C3A" stroke="black"/>
<path d="M290.834 302.074C291.861 303.037 293.29 303.318 294.891 302.933C296.499 302.546 298.247 301.489 299.804 299.829C301.351 298.179 302.276 296.269 302.54 294.534C302.804 292.796 302.403 291.286 301.379 290.326C300.35 289.361 298.803 289.027 297.078 289.369C295.357 289.71 293.506 290.72 291.963 292.366C290.429 294.001 289.613 295.949 289.454 297.733C289.294 299.523 289.796 301.101 290.834 302.074Z" fill="#AC865F" stroke="black"/>
<path d="M346.393 302.496C346.786 307.614 344.14 313.869 339.882 318.983C335.625 324.094 329.857 327.946 324.138 328.385C318.244 328.837 311.952 326.124 306.988 321.585C302.028 317.049 298.454 310.741 297.944 304.097C297.158 293.837 305.788 283.973 319.336 282.934C325.666 282.449 332.246 284.758 337.348 288.507C342.458 292.262 346.002 297.397 346.393 302.496Z" fill="#AC865F" stroke="black"/>
<ellipse cx="312.586" cy="306.975" rx="1.75874" ry="2.3771" transform="rotate(-11.2635 312.586 306.975)" fill="black"/>
<ellipse cx="328.746" cy="304.987" rx="1.75874" ry="2.3771" transform="rotate(2.94352 328.746 304.987)" fill="black"/>
<path d="M338.313 315.752C338.442 317.881 336.939 320.51 334.249 322.709C331.583 324.889 327.85 326.559 323.739 326.809C319.633 327.058 315.618 325.795 312.6 323.953C311.093 323.033 309.848 321.976 308.971 320.91C308.089 319.836 307.607 318.789 307.552 317.883C307.488 316.826 307.727 315.897 308.258 315.078C308.793 314.253 309.641 313.514 310.833 312.876C313.229 311.596 316.93 310.772 321.951 310.467C327.542 310.127 331.612 310.389 334.302 311.29C335.641 311.738 336.607 312.333 337.253 313.063C337.893 313.785 338.247 314.669 338.313 315.752Z" fill="white" stroke="black"/>
<path d="M324.845 313.199C324.897 314.6 323.876 316.62 321.656 316.898C318.958 316.886 317.558 315.143 317.511 313.874C317.497 313.498 317.596 313.23 317.757 313.021C317.926 312.804 318.189 312.618 318.556 312.466C319.301 312.158 320.338 312.045 321.42 312.005C322.482 311.966 323.379 312.056 323.996 312.286C324.6 312.511 324.831 312.818 324.845 313.199Z" fill="#E651A3" stroke="black"/>
<path d="M321.839 317.144C321.635 319.482 322.956 322.074 322.956 322.074" stroke="black"/>
<path d="M322.753 321.769C324.481 323.649 327.327 322.43 326.818 320.803" stroke="black"/>
<path d="M322.79 321.909C321.623 324.181 318.556 323.761 318.614 322.058" stroke="black"/>
<path d="M304.811 298.83C304.302 297.643 307.695 295.861 308.332 296.964" stroke="black"/>
<path d="M330.811 293.616C331.035 292.343 327.325 291.384 326.957 292.603" stroke="black"/>
<path d="M320.712 359.066C320.712 364.317 316.743 368.515 311.917 368.515C307.09 368.515 303.121 364.317 303.121 359.066C303.121 353.816 307.09 349.618 311.917 349.618C316.743 349.618 320.712 353.816 320.712 359.066Z" fill="#AC865F" stroke="black"/>
<path d="M354.74 355.162C354.74 361.615 350.077 366.747 344.439 366.747C338.802 366.747 334.139 361.615 334.139 355.162C334.139 348.709 338.802 343.577 344.439 343.577C350.077 343.577 354.74 348.709 354.74 355.162Z" fill="#AC865F" stroke="black"/>
<path d="M350.65 354.986C350.65 357.89 348.559 360.145 346.093 360.145C343.628 360.145 341.536 357.89 341.536 354.986C341.536 352.083 343.628 349.828 346.093 349.828C348.559 349.828 350.65 352.083 350.65 354.986Z" fill="#7D5B3B" stroke="black"/>
<path d="M314.061 357.897C314.427 360.564 312.791 362.893 310.535 363.204C308.279 363.514 306.074 361.713 305.708 359.046C305.341 356.379 306.977 354.05 309.233 353.739C311.489 353.429 313.694 355.23 314.061 357.897Z" fill="#7D5B3B" stroke="black"/>
<path d="M255.33 348.75C255.102 344.982 264.807 322.603 266.52 322.946C266.52 322.946 278.965 325.8 280.335 325.914C281.706 326.028 290.612 347.037 290.383 349.778C290.155 352.518 286.958 360.853 284.103 360.853H262.295C258.641 360.853 255.559 352.518 255.33 348.75Z" fill="#F17923" stroke="black"/>
<path d="M264.409 350.283C264.409 350.283 264.326 357.737 264.409 358.486C264.493 359.235 265.258 360.491 265.628 360.597C265.997 360.704 268.098 360.597 268.389 360.597C268.68 360.597 269.148 359.478 269.195 358.486C269.242 357.494 268.389 350.77 268.389 350.77" stroke="black"/>
<path d="M279.516 350.608C279.516 350.608 279.516 357.699 279.516 358.405C279.516 359.11 280.415 360.354 280.734 360.354C281.053 360.354 283.008 360.354 283.414 360.354C283.82 360.354 284.065 358.708 284.104 358.405C284.143 358.101 283.414 352.638 283.414 352.638" stroke="black"/>
<path d="M262.752 333.564C262.638 332.422 267.89 324.43 270.174 325.343L277.937 326.143C277.937 326.143 281.02 333.45 281.82 334.478C282.619 335.505 282.847 341.1 281.82 341.1C280.792 341.1 280.792 339.958 280.221 341.1C279.65 342.242 280.221 344.754 280.221 344.754C280.221 344.754 276.339 350.577 274.398 350.234C272.457 349.892 262.637 343.041 262.752 333.564Z" fill="#FFFCC8" stroke="black"/>
<path d="M257.775 303.89C257.775 303.89 258.957 288.704 268.181 284.373C269.306 290.447 274.368 298.097 275.718 299.39C275.38 300.797 264.782 302.133 257.775 303.89Z" fill="#E77717" stroke="black"/>
<path d="M294.729 310.977C294.729 310.977 303.559 301.078 299.116 291.966C295.525 296.993 288.963 300.084 287.192 300.684C286.902 302.101 289.124 306.419 294.729 310.977Z" fill="#E77717" stroke="black"/>
<path d="M294.56 307.209C294.56 307.209 298.838 302.536 297.489 298.264C294.948 299.693 291.752 302.3 290.94 302.576C291.636 303.665 293.204 304.813 294.56 307.209Z" fill="#FFFBC7" stroke="black"/>
<path d="M262.838 301.247C262.838 301.247 262.095 295.093 265.819 291.741C267.214 294.439 269.044 296.913 269.864 297.329C268.57 297.836 265.885 299.421 262.838 301.247Z" fill="#FFFBC7" stroke="black"/>
<path d="M279.48 295.893L279.575 295.905L279.667 295.881C280.611 295.637 281.283 295.25 281.778 294.817C282.271 294.386 282.57 293.926 282.782 293.574C282.814 293.521 282.843 293.473 282.869 293.429C282.935 293.318 282.986 293.233 283.038 293.158C283.053 293.136 283.066 293.118 283.077 293.103C283.127 293.135 283.202 293.191 283.309 293.29C283.845 293.785 283.895 294.609 283.836 295.593C283.83 295.698 283.822 295.807 283.814 295.917C283.79 296.269 283.764 296.633 283.779 296.934C283.797 297.299 283.882 297.847 284.383 298.095C288.447 300.104 292.002 303.373 294.303 307.01C296.609 310.654 297.617 314.603 296.712 317.997C295.729 321.681 292.436 323.534 288.099 324.45C284.023 325.311 279.192 325.308 274.906 325.304C274.663 325.304 274.421 325.304 274.181 325.304C269.484 324.04 264.838 321.54 261.631 318.403C258.404 315.247 256.709 311.532 257.701 307.813C258.025 306.598 259.023 305.171 260.536 303.711C262.037 302.261 263.999 300.822 266.172 299.576C270.54 297.071 275.646 295.407 279.48 295.893Z" fill="#E77717" stroke="black"/>
<path d="M261.097 302.613C252.296 302.613 251.103 298.138 251.103 298.138C250.059 302.613 254.683 310.519 254.683 310.519L250.059 309.027C250.208 316.038 265.274 327.076 269.003 325.137C269.003 325.137 277.505 306.342 261.097 302.613Z" fill="#FFFCC8" stroke="black"/>
<path d="M293.992 311.587C301.839 314.312 304.458 311.989 304.458 311.989C303.21 316.412 294.446 317.996 294.446 317.996L302.828 317.501C300.69 324.926 277.462 331 273.329 326.331C273.329 326.331 277.825 306.921 293.992 311.587Z" fill="#FFFCC8" stroke="black"/>
<circle cx="267.197" cy="313.182" r="1.82802" fill="black"/>
<circle cx="282.439" cy="316.838" r="1.82802" fill="black"/>
<path d="M275.305 327.645C274.86 329.45 272.537 330.43 270.117 329.833C267.696 329.237 266.095 327.29 266.539 325.485C266.984 323.68 269.307 322.7 271.727 323.296C274.148 323.893 275.75 325.84 275.305 327.645Z" fill="black"/>
<path d="M251.111 352.398C248.474 350.303 251.965 336.029 251.499 334.012C251.249 329.859 246.982 326.63 244.129 325.658C242.051 325.658 242.502 323.249 242.502 323.249C239.839 323.46 236.914 332.151 242.189 341.382C244.981 348.829 241.337 354.415 244.129 358.836C246.535 361.086 256.076 357.44 259.256 358.836C259.256 358.836 257.951 356.256 256.619 355.035C254.861 353.424 252.585 353.872 251.111 352.398Z" fill="#E77717" stroke="black"/>
<path d="M242.074 341.052C240.474 339.678 236.005 325.609 242.639 323.031C242.639 323.938 242.97 324.68 244.202 325.178C248.533 326.929 250.896 331.67 250.896 331.67C250.896 331.67 243.675 342.427 242.074 341.052Z" fill="#FFFCC8" stroke="black"/>
<path d="M293.132 395.301C293.132 395.301 203.673 405.776 201.868 404.933C201.868 404.933 200.543 409.87 200.543 412.639C201.868 411.435 293.132 406.859 292.29 402.164L293.132 395.301Z" fill="#902723" stroke="black"/>
<path d="M271.099 433.107C264.959 433.589 199.579 435.756 198.375 434.913C196.328 435.876 197.653 442.86 197.653 442.86C199.218 444.545 265.32 442.017 271.099 441.776C276.878 441.535 291.808 438.405 292.169 437.201C294.336 436.599 292.771 427.689 292.771 427.689C292.169 426.605 277.239 432.626 271.099 433.107Z" fill="#902723" stroke="black"/>
<path d="M207.887 371.341C207.646 369.294 198.496 369.053 198.375 371.341L190.79 446.351C191.151 448.398 199.579 447.796 199.941 445.509L207.887 371.341Z" fill="#902723" stroke="black"/>
<path d="M290.821 370.559C291.319 368.559 300.426 369.478 300.256 371.763L298.284 447.13C297.666 449.115 289.382 447.451 289.314 445.136L290.821 370.559Z" fill="#902723" stroke="black"/>
<path d="M399.199 119.57C402.511 123.415 400.182 124.678 400.182 124.678C398.385 125.661 400.182 127.036 402.203 126.306L404.392 123.921C405.178 120.553 401.641 113.901 393.67 113.48C390.892 113.059 386.85 115.585 387.271 118.223C386.401 120.665 392.716 129.225 392.857 130.348C394.091 134.586 390.892 132.284 390.892 132.284C390.892 132.284 384.577 127.934 384.745 126.559L384.577 124.257C384.577 124.257 384.745 122.208 382.865 123.163C382.865 123.163 381.152 124.454 381.012 125.24C380.142 129.506 388.843 135.316 391.874 136.27C395.803 137.729 397.01 132.06 396.701 130.853C396.645 129.899 388.843 118.223 391.874 117.465C394.316 116.539 399.199 119.57 399.199 119.57Z" fill="black" stroke="black"/>
<path d="M388.127 96.7755C391.544 96.1364 392.06 94.9073 393.928 96.0626C395.796 97.218 390.536 99.7253 388.619 99.799C386.702 99.8727 382.99 100.069 382.719 98.6437C382.448 97.218 384.71 97.4146 388.127 96.7755Z" fill="black" stroke="black"/>
<path d="M353.012 100.182C351.741 103.066 347.436 100.876 350.162 97.1191L360.073 83.2095C361.455 82.1321 362.56 83.7132 362.158 84.5707L360.712 87.3356C369.627 85.8466 375.513 92.5516 373.983 97.587C373.983 97.587 371.36 103.962 370.24 105.456C369.119 106.951 367.627 108.914 365.391 110.986C364.008 112.305 360.941 110.876 362.498 108.604C362.498 108.604 365.777 105.732 367.007 104.18C368.236 102.628 370.24 97.9233 370.24 97.1191C370.77 92.9517 367.007 88.9324 358.5 90.4408C358.5 90.4408 355.474 94.6851 354.926 95.6303C354.379 96.5756 353.012 100.182 353.012 100.182Z" fill="black" stroke="black"/>
<path d="M342.548 82.4865C343.399 81.1254 347.439 75.8507 347.439 75.8507C349.651 74.1918 350.46 76.1485 349.949 77.3821C349.949 77.3821 345.228 85.0388 344.632 86.1872C344.036 87.3357 342.038 92.6104 341.399 93.4611C339.4 95.6305 337.146 93.8014 338.082 91.0365C338.082 91.0365 341.697 83.8477 342.548 82.4865Z" fill="black"/>
<path d="M350.673 70.5336C350.12 69.7255 349.056 67.7687 350.673 67.1732C352.289 66.5777 353.267 67.8539 353.82 68.7471C354.373 69.6403 354.076 71.4268 353.353 71.7247C352.629 72.0225 351.226 71.3417 350.673 70.5336Z" fill="black"/>
<path d="M342.548 82.4865C343.399 81.1254 347.439 75.8507 347.439 75.8507C349.651 74.1918 350.46 76.1485 349.949 77.3821C349.949 77.3821 345.228 85.0388 344.632 86.1872C344.036 87.3357 342.038 92.6104 341.399 93.4611C339.4 95.6305 337.146 93.8014 338.082 91.0365C338.082 91.0365 341.697 83.8477 342.548 82.4865Z" stroke="black"/>
<path d="M350.673 70.5336C350.12 69.7255 349.056 67.7687 350.673 67.1732C352.289 66.5777 353.267 67.8539 353.82 68.7471C354.373 69.6403 354.076 71.4268 353.353 71.7247C352.629 72.0225 351.226 71.3417 350.673 70.5336Z" stroke="black"/>
<path d="M313.24 80.1043L322.896 57.1768C324.938 54.4971 327.107 56.8366 326.554 57.8574L322.896 66.0245C331.446 63.7701 338.635 72.1074 337.401 76.5737L332.467 88.8244C329.021 90.8662 328.766 87.2931 329.447 86.3148C330.127 85.2088 333.956 76.5737 333.573 75.5954C332.977 69.938 326.554 67.2582 321.152 70.4059L316.558 81.5506C315.367 83.2946 312.394 82.4669 313.24 80.1043Z" fill="black" stroke="black"/>
<path d="M300.224 57.7723L302.436 51.9873C304.265 50.1583 305.881 51.9873 305.626 52.9232L303.457 58.8783L311.666 60.8776C313.198 62.0261 312.942 64.7059 310.56 64.1955L302.861 62.0261L300.734 69.3425C300.224 72.235 300.734 76.3186 306.179 74.6171C307.413 74.2768 309.199 75.2126 307.413 77.0417C307.413 77.0417 303.967 78.9558 302.436 78.6155C300.224 78.573 295.375 75.3827 297.459 68.2365L299.161 61.1328L295.119 60.0694C293.205 58.8783 293.163 56.6239 295.843 56.6239L300.224 57.7723Z" fill="black" stroke="black"/>
<path fill-rule="evenodd" clip-rule="evenodd" d="M268.746 54.7525L265.727 78.9559C264.706 82.0185 269.81 82.9543 269.81 79.4239C269.81 79.4239 269.47 75.0424 269.81 73.8941L270.235 71.4269C270.235 71.4269 278.318 73.8941 282.869 72.0224C285.676 70.9589 292.993 59.2187 285.336 54.4972C285.336 54.4972 274.489 48.5845 268.746 54.7525ZM271.937 56.6238L270.703 68.279C281.082 70.5335 284.423 69.1319 284.996 63.1745C285.568 57.2171 278.275 53.2209 271.937 56.6238Z" fill="black" stroke="black"/>
<path d="M230.104 69.655L229.4 52.5478C229.568 50.9712 232.05 50.9377 232.486 52.5478C239.832 46.577 245.367 54.6946 245.367 54.6946C245.367 54.6946 255.028 44.6314 263.011 56.6066C263.782 58.0154 264.252 68.2462 263.581 70.326C262.743 72.0367 259.321 72.2379 259.522 68.5817L260.327 65.2609L259.321 57.68C258.885 54.4262 250.6 51.1389 247.178 58.0154C247.178 58.0154 247.413 65.6969 247.648 66.8039L247.849 68.783C247.849 70.8626 244.528 71.5335 243.556 68.9507C243.388 68.1456 243.79 67.2064 243.824 66.5691C243.824 66.5691 244.025 60.6653 243.388 59.0888C243.388 59.0888 241.845 55.1306 240.872 54.6946C240.872 54.6946 236.31 52.3465 233.325 55.8686C232.486 56.8413 234.398 69.3197 234.398 69.3197C235.002 70.9297 230.608 72.9759 230.104 69.655Z" fill="black" stroke="black"/>
<path d="M213.384 75.9961C200.112 75.3438 202.345 56.8542 202.345 56.8542C202.947 55.2988 204.854 55.1733 205.807 56.8542C206.334 63.1763 206.961 72.9103 212.881 72.7598C217.556 72.3493 219.379 65.5596 219.379 65.5596C219.505 65.0077 217.071 53.8186 217.071 53.8186C217.422 51.8617 219.63 52.0374 220.358 53.066L224.397 71.8065C224.447 73.4623 221.236 73.4874 221.06 72.6093L220.358 69.8998C220.358 69.8998 219.379 75.67 213.384 75.9961Z" fill="black" stroke="black"/>
<path d="M192.281 59.5142C191.83 62.8537 190.037 60.7262 190.037 60.7262C189.048 59.0361 188.459 58.5487 187.568 58.2574C182.619 57.7792 180.476 63.8234 180.476 63.8234C178.895 68.0725 182.855 68.499 184.695 68.4468C185.718 68.5193 193.15 67.3618 194.705 67.5939C196.156 67.5649 202.248 69.3113 198.431 75.8082C198.431 75.8082 193.11 83.4244 186.266 82.8555C186.266 82.8555 182.855 81.9623 182.9 79.7583C182.9 79.7583 182.9 76.8653 184.695 77.7833L188.107 79.4441C189.231 79.4443 194.722 75.9388 195.465 74.4895C195.863 73.7135 197.861 71.4435 192.281 70.9156C191.201 70.6312 182.591 71.8293 181.823 71.8133C181.823 71.8133 175.524 72.4994 176.84 62.6564C177.352 58.9549 182.713 55.0357 186.042 54.8909C192.054 54.9748 192.281 59.5142 192.281 59.5142Z" fill="black" stroke="black"/>
<path d="M97.9602 120.822C98.0633 121.788 92.1287 121.961 95.4407 117.751L103.929 107.676L105.723 105.158C106.758 103.881 109.656 104.847 108.655 108.056C107.827 109.505 106.517 109.505 106.517 109.505L103.929 112.817C103.929 112.817 117.385 124.1 118.316 124.238C119.075 124.479 121.18 125.997 121.18 125.997C122.733 126.239 121.422 130.345 118.523 129.068C118.523 129.068 115.66 127.826 114.694 125.825C114.694 125.825 101.996 115.992 101.617 115.578C101.651 116.164 97.9602 120.822 97.9602 120.822Z" fill="black" stroke="black"/>
<path d="M128.872 117C128.648 116.693 113.567 99.0188 113.093 98.3776C111.978 95.5341 114.794 94.3633 115.965 96.2032L121.01 102.225C120.201 98.0431 131.213 89.1223 137.262 94.8094C141.806 99.9109 145.738 104.343 145.738 104.343C146.88 106.211 143.618 107.856 142.699 106.852C142.699 106.852 139.465 102.225 138.936 101.807L134.587 97.2904C131.269 94.3632 121.344 98.8236 124.188 106.044C124.188 106.044 129.68 112.093 130.405 113.264L132.412 115.606C132.802 116.108 131.157 118.617 129.82 117.864L128.872 117Z" fill="black" stroke="black"/>
<path fill-rule="evenodd" clip-rule="evenodd" d="M158.633 78.876C160.712 80.2033 158.279 82.9906 158.279 82.9906L148.147 94.7595C154.09 99.0976 159.972 92.7722 162.329 90.2377C162.832 89.6962 163.175 89.3278 163.323 89.2733C163.323 89.2733 166.464 88.6096 166.11 90.7775C164.916 93.3879 155.802 103.077 146.909 98.0777C146.909 98.0777 136.202 91.8393 145.271 80.7785C152.129 74.3632 158.633 78.876 158.633 78.876ZM155.846 80.8226L146.511 92.1932C146.511 92.1932 143.458 87.1937 147.838 82.9021C152.218 78.6104 155.846 80.8226 155.846 80.8226Z" fill="black" stroke="black"/>
<defs>
<linearGradient id="paint0_linear" x1="73.0569" y1="8.84777" x2="373.816" y2="482.301" gradientUnits="userSpaceOnUse">
<stop offset="0.755208" stop-color="#3F9142"/>
<stop offset="1" stop-color="#3F9142" stop-opacity="0"/>
</linearGradient>
</defs>
</svg>
